<svg width="428" height="5230" viewBox="0 0 428 5230" fill="none" xmlns="http://www.w3.org/2000/svg">
<path d="M417.427 58.3217C410.941 58.3295 404.725 60.4536 400.142 64.2276C395.559 68.0016 392.985 73.117 392.985 78.4504C392.985 78.4504 401.537 114.515 392.985 123.227C389.539 126.725 374.918 126.416 371.004 123.227C355.709 110.643 371.004 52.0884 371.004 52.0884C371.004 49.4446 370.371 46.8266 369.14 44.3841C367.91 41.9416 366.106 39.7224 363.832 37.8532C361.559 35.984 358.859 34.5015 355.889 33.4903C352.918 32.4791 349.735 31.959 346.52 31.9598C340.038 31.9675 333.824 34.0892 329.242 37.8594C324.66 41.6296 322.084 46.7405 322.078 52.0709C322.078 52.0709 331.899 77.1442 318.299 90.9754C314.853 94.474 300.232 94.1649 296.318 90.9754C274.159 72.7535 300.097 20.1403 300.097 20.1403C300.097 17.4965 299.464 14.8786 298.233 12.4361C297.002 9.99356 295.199 7.77434 292.925 5.90514C290.652 4.03595 287.952 2.55341 284.982 1.54219C282.011 0.530976 278.828 0.0108931 275.613 0.011659C269.127 0.0193841 262.91 2.14349 258.328 5.9175C253.745 9.69152 251.171 14.8069 251.171 20.1403C251.171 20.1403 271.557 93.4302 251.88 113.471C249.228 116.171 237.982 115.926 234.997 113.471C215.221 97.2146 234.288 31.2542 234.288 31.2542C234.288 25.9152 231.709 20.7948 227.119 17.019C222.529 13.2433 216.303 11.1213 209.811 11.1197C203.317 11.1197 197.09 13.241 192.498 17.017C187.906 20.7929 185.327 25.9142 185.327 31.2542C185.327 31.2542 203.968 81.9373 186.39 99.821C183.838 102.422 172.996 102.188 170.082 99.821C154.787 87.2435 169.018 52.0767 169.018 52.0767C169.018 46.7383 166.439 41.6185 161.849 37.8436C157.259 34.0688 151.033 31.9481 144.541 31.9481C141.326 31.9473 138.142 32.4674 135.172 33.4786C132.201 34.4898 129.502 35.9724 127.228 37.8416C124.955 39.7108 123.151 41.93 121.921 44.3725C120.69 46.815 120.057 49.4329 120.057 52.0767C120.057 52.0767 133.657 109.396 120.057 123.215C117.142 126.183 104.769 125.915 101.486 123.215C79.3277 104.987 101.486 20.1286 101.486 20.1286C101.487 17.4851 100.855 14.8673 99.6248 12.4248C98.3951 9.98237 96.5922 7.76311 94.3191 5.89384C92.046 4.02457 89.3473 2.54193 86.3771 1.53064C83.407 0.519356 80.2237 -0.000762765 77.009 8.39585e-07C73.7941 -0.000762512 70.6104 0.519311 67.6399 1.53053C64.6693 2.54174 61.9702 4.02429 59.6965 5.89348C57.4228 7.76267 55.6192 9.98189 54.3887 12.4244C53.1582 14.8669 52.5248 17.4848 52.5248 20.1286C52.5248 20.1286 72.1945 88.5963 52.5248 108.643C49.7382 111.477 37.9321 111.215 34.798 108.643C25.1689 100.725 34.798 78.4387 34.798 78.4387C34.799 75.7952 34.1665 73.1774 32.9367 70.7349C31.707 68.2924 29.904 66.0732 27.6309 64.2039C25.3578 62.3346 22.6591 60.852 19.689 59.8407C16.7189 58.8294 13.5356 58.3093 10.3209 58.3101C7.10627 58.3093 3.92295 58.8294 0.952827 59.8407C-2.01729 60.852 -4.716 62.3346 -6.9891 64.2039C-9.2622 66.0732 -11.0651 68.2924 -12.2949 70.7349C-13.5247 73.1774 -14.1571 75.7952 -14.1562 78.4387V123.215H-15V541.1H-14.5816V635.854C-14.5816 637.418 -14.3604 638.963 -13.9321 640.461V1983H-15V2107H-13.9321V5231.5H443V2085.13H442.575V2056.51H443V428.971C443 421.949 442.639 414.978 441.932 408.285V78.4504C441.932 75.8051 441.298 73.1857 440.066 70.7421C438.835 68.2984 437.029 66.0784 434.753 64.209C432.477 62.3396 429.775 60.8574 426.803 59.8472C423.83 58.8371 420.644 58.3187 417.427 58.3217Z" fill="url(#paint0_linear_1090_1174)"/>
<defs>
<linearGradient id="paint0_linear_1090_1174" x1="-103.592" y1="-1122.26" x2="1138.09" y2="-1004.65" gradientUnits="userSpaceOnUse">
<stop stop-color="#EA6EE7"/>
<stop offset="0.244792" stop-color="#FD68E3"/>
<stop offset="0.5" stop-color="#B66FFA"/>
<stop offset="0.739583" stop-color="#7668FD"/>
<stop offset="1" stop-color="#7D2AE7"/>
</linearGradient>
</defs>
</svg>
